<?xml version="1.0" encoding="UTF-8"?>
<svg version="1.1" xmlns="http://www.w3.org/2000/svg" width="1024" height="1024">
<path d="M0 0 C2.14613842 1.86201358 4.14448989 3.71362473 6.14135742 5.72143555 C6.72262894 6.29423752 7.30390045 6.86703949 7.90278625 7.4571991 C9.81152375 9.34264278 11.70896073 11.23897965 13.60546875 13.13671875 C14.93462988 14.45877385 16.26408705 15.78053138 17.59382629 17.102005 C20.37529619 19.87004762 23.15077834 22.64393575 25.92260742 25.42163086 C29.4665386 28.9714569 33.02837053 32.50269753 36.59539318 36.02929974 C39.34507826 38.75307283 42.08314489 41.48830027 44.81807899 44.22687721 C46.12619665 45.53330699 47.43827941 46.83577951 48.75444603 48.13409996 C50.59745019 49.95484619 52.42373367 51.79093661 54.24682617 53.6315918 C54.78765839 54.15916077 55.3284906 54.68672974 55.88571167 55.23028564 C60.51521599 59.96350964 62.6601027 64.82762521 63.375 71.5 C61.73940079 86.76559261 46.71012043 97.39910832 36.375 107.625 C33.81728858 110.15582856 31.26312004 112.69015982 28.7109375 115.2265625 C27.85597183 116.06908066 27.85597183 116.06908066 26.98373413 116.92861938 C24.11041405 119.78471478 21.36668385 122.69575182 18.72753906 125.77026367 C14.2819364 130.90865459 9.46407984 135.6602303 4.6484375 140.44921875 C3.66128841 141.43449666 2.67436438 142.4200001 1.68765259 143.40571594 C-0.88917924 145.97876432 -3.46899738 148.54879733 -6.04949951 151.11816406 C-8.67023545 153.7286457 -11.2881272 156.34197616 -13.90625 158.95507812 C-18.5144007 163.5537106 -23.12500515 168.14986779 -27.73745728 172.7441864 C-28.48409637 173.48860489 -29.23073547 174.23302338 -30 175 C-30.86523285 175.86039383 -31.7304657 176.72078766 -32.62191772 177.60725403 C-34.83997377 179.83898702 -36.97481294 182.13163024 -39.09790039 184.45336914 C-47.77910561 193.92389605 -56.89202669 202.95497601 -66.02416992 211.98706055 C-66.5779129 212.53657379 -67.13165588 213.08608704 -67.70217896 213.6522522 C-68.74157755 214.6835549 -69.78306462 215.71275917 -70.82711792 216.73934937 C-74.11545193 220.00511522 -77.06040259 223.42660261 -80 227 C-81.7734375 228.6171875 -81.7734375 228.6171875 -83.375 229.875 C-85.91796459 231.97159508 -88.08176281 234.155372 -90.20703125 236.671875 C-94.04599295 241.11447893 -98.13868852 245.24867583 -102.3125 249.375 C-103.08505127 250.14376465 -103.85760254 250.9125293 -104.65356445 251.70458984 C-107.92376036 254.9585983 -111.1999349 258.20656266 -114.47558594 261.45507812 C-116.88165285 263.84295352 -119.28463038 266.23390793 -121.6875 268.625 C-122.41686768 269.34606934 -123.14623535 270.06713867 -123.89770508 270.81005859 C-127.88935995 274.78281315 -131.67533941 278.85906672 -135.35159302 283.12451172 C-137.8362583 285.9514596 -140.47851466 288.6031926 -143.15234375 291.25 C-143.96983849 292.06537231 -143.96983849 292.06537231 -144.80384827 292.8972168 C-146.51269217 294.60054815 -148.22501197 296.30033326 -149.9375 298 C-151.11026009 299.16773374 -152.28278798 300.33570074 -153.45507812 301.50390625 C-156.30071689 304.33863234 -159.14947453 307.17018824 -162 310 C-159.37441955 312.76545268 -156.79925495 314.93848827 -153.5703125 316.9609375 C-152.70325684 317.5079834 -151.83620117 318.0550293 -150.94287109 318.61865234 C-150.01297363 319.19824707 -149.08307617 319.7778418 -148.125 320.375 C-146.14056279 321.62490123 -144.15618966 322.87490421 -142.171875 324.125 C-141.15287109 324.764375 -140.13386719 325.40375 -139.08398438 326.0625 C-134.17014046 329.14960143 -129.27168541 332.26077586 -124.375 335.375 C-123.45912109 335.95701172 -122.54324219 336.53902344 -121.59960938 337.13867188 C-115.00565772 341.33744634 -108.46670927 345.60700341 -102 350 C-98.92342118 348.67458519 -97.30630627 347.45741133 -95.44140625 344.68359375 C-94.98008301 344.01086426 -94.51875977 343.33813477 -94.04345703 342.64501953 C-93.55474121 341.91653809 -93.06602539 341.18805664 -92.5625 340.4375 C-88.39551835 334.37795525 -84.12693972 328.44029168 -79.625 322.625 C-74.89063169 316.49993783 -70.26185537 310.30794793 -65.6875 304.0625 C-63.96574816 301.72707767 -62.24202324 299.39313177 -60.51708984 297.06005859 C-59.57468485 295.78036542 -58.63666471 294.49741588 -57.70556641 293.20947266 C-56.6522454 291.75352917 -55.5772228 290.31334892 -54.5 288.875 C-53.9534375 288.12992187 -53.406875 287.38484375 -52.84375 286.6171875 C-50.20900298 284.30620177 -48.49040805 283.93830087 -45 284 C-42.86970517 285.62275295 -41.62256914 286.92455327 -40 289 C-39.45102051 289.68610352 -38.90204102 290.37220703 -38.33642578 291.07910156 C-36.38023386 293.57164347 -34.46801661 296.09352325 -32.5625 298.625 C-31.51231689 300.01138672 -31.51231689 300.01138672 -30.44091797 301.42578125 C-25.19775951 308.36459443 -20.02885797 315.35681069 -14.88696289 322.37084961 C-10.71359704 328.05720362 -6.45321408 333.66701583 -2.1328125 339.2421875 C0.61797678 342.79906887 3.31349043 346.39442137 6 350 C11.11005311 348.30346237 15.30176991 345.32876196 19.75 342.375 C21.54237175 341.1970078 23.33537046 340.01996915 25.12890625 338.84375 C26.07910645 338.21984375 27.02930664 337.5959375 28.00830078 336.953125 C34.26890563 332.86590134 40.57694308 328.85194228 46.88696289 324.84155273 C51.68528304 321.78685696 56.45908957 318.71246501 61.15625 315.50390625 C61.93009033 314.98135254 62.70393066 314.45879883 63.5012207 313.92041016 C64.91066063 312.96441483 66.31109555 311.99493856 67.69995117 311.00927734 C70.75493368 308.95033772 72.60440154 307.99582604 76.33203125 308.03515625 C79 309 79 309 81 312 C81.42130325 321.84709218 78.52019697 332.44975155 76.8671875 342.13671875 C76.5487521 344.02051812 76.23065445 345.90437462 75.91287231 347.7882843 C75.24456607 351.74511166 74.57357454 355.70147032 73.90039062 359.6574707 C73.05992859 364.59654369 72.22389 369.53635037 71.38959885 374.47646904 C69.76004482 384.12549059 68.11873708 393.7724305 66.46564865 403.41744804 C65.47743242 409.18848737 64.50111454 414.96138974 63.53362083 420.73593807 C62.90944876 424.45103245 62.27741554 428.16476096 61.6435585 431.87821388 C61.34803798 433.61958688 61.05581312 435.36152283 60.76711655 437.10404015 C60.3693823 439.50170527 59.95978644 441.89706068 59.54736328 444.29223633 C59.37844763 445.33746554 59.37844763 445.33746554 59.20611954 446.4038105 C58.44950952 450.70534032 57.29744177 454.27282197 55 458 C51.3282595 459.2239135 47.94176123 459.15140291 44.11807251 459.15390015 C43.30641014 459.1582824 42.49474778 459.16266465 41.65848958 459.1671797 C38.92938786 459.18057107 36.20031843 459.18674726 33.47119141 459.19287109 C31.5182938 459.20077162 29.56539765 459.20904054 27.61250305 459.21765137 C21.19220372 459.24387125 14.77189786 459.25917629 8.3515625 459.2734375 C6.1429888 459.27879668 3.93441514 459.28417419 1.72584152 459.28956985 C-7.45825574 459.31119612 -16.64235123 459.32993458 -25.82646751 459.34119225 C-38.9988214 459.35744396 -52.1708809 459.39065442 -65.34312379 459.44759309 C-74.60008611 459.48624736 -83.85696953 459.50581943 -93.11401045 459.51111281 C-98.6458263 459.51477168 -104.17732817 459.52685036 -109.70905685 459.55921555 C-114.91133517 459.58921761 -120.11310819 459.59563608 -125.31545448 459.58383179 C-127.22586891 459.58361041 -129.13630627 459.59196815 -131.0466404 459.60948563 C-133.65307478 459.63208756 -136.25766285 459.62392506 -138.86410522 459.60800171 C-139.62179337 459.6218838 -140.37948151 459.63576588 -141.1601299 459.65006864 C-145.14190295 459.59004437 -146.82635243 459.14156124 -149.95502663 456.59099865 C-151.8911077 454.13796747 -152.70351615 452.88381723 -153.1875 449.86499023 C-153.32583252 449.0667836 -153.46416504 448.26857697 -153.60668945 447.44618225 C-153.73648193 446.57577805 -153.86627441 445.70537384 -154 444.80859375 C-154.15750732 443.86700912 -154.31501465 442.9254245 -154.47729492 441.95530701 C-155.00335367 438.78544249 -155.50115629 435.61175158 -156 432.4375 C-156.36890704 430.18925598 -156.74006307 427.94138003 -157.11328125 425.69384766 C-157.83433999 421.34196703 -158.54958123 416.98922908 -159.25715637 412.63513565 C-161.64342801 397.9641943 -164.1605325 383.31525093 -166.66862488 368.66474056 C-167.55643347 363.47725674 -168.43918698 358.2889476 -169.31733704 353.09982014 C-169.87009518 349.83591675 -170.42539755 346.57244948 -170.98123169 343.30906868 C-171.24215037 341.7738573 -171.50199059 340.23846221 -171.76071167 338.70287895 C-172.11618758 336.59421413 -172.47557523 334.48625237 -172.8359375 332.37841797 C-173.03751465 331.18957001 -173.2390918 330.00072205 -173.44677734 328.77584839 C-173.86187312 326.056447 -173.86187312 326.056447 -175 324 C-179.43240459 328.4075185 -183.86138646 332.81843892 -188.28735352 337.23242188 C-189.79066955 338.73073707 -191.29488536 340.22815007 -192.80004883 341.72460938 C-194.9745947 343.88690225 -197.1457871 346.05251613 -199.31640625 348.21875 C-200.31215416 349.20675598 -200.31215416 349.20675598 -201.32801819 350.21472168 C-204.4843101 353.37064117 -207.53319404 356.56722836 -210.44702148 359.94921875 C-214.27036399 364.37610196 -218.37388222 368.48230521 -222.53125 372.59375 C-223.32599731 373.38471069 -224.12074463 374.17567139 -224.9395752 374.99060059 C-228.30535548 378.34018573 -231.67711048 381.6837327 -235.04833984 385.02783203 C-237.52390227 387.48520939 -239.99638083 389.94566058 -242.46875 392.40625 C-243.21999146 393.14919312 -243.97123291 393.89213623 -244.74523926 394.65759277 C-248.07166797 397.96871039 -251.30822272 401.29997022 -254.36376953 404.86376953 C-258.42231441 409.57316 -262.81536366 413.92857774 -267.22855759 418.30372238 C-268.74406956 419.80628649 -270.25627325 421.31211417 -271.76773071 422.8187561 C-274.96731959 426.00702542 -278.17087689 429.19128837 -281.375 432.375 C-285.11159893 436.0879654 -288.84653631 439.80257224 -292.5773201 443.52138138 C-294.06712466 445.00470648 -295.55990585 446.484991 -297.05282593 447.96517944 C-298.40025375 449.30765244 -298.40025375 449.30765244 -299.77490234 450.67724609 C-300.56875336 451.46586029 -301.36260437 452.25447449 -302.18051147 453.06698608 C-304.05756911 454.87564195 -304.05756911 454.87564195 -305 457 C-305.66 457 -306.32 457 -307 457 C-307.66 458.32 -308.32 459.64 -309 461 C-309.66 461 -310.32 461 -311 461 C-311 461.66 -311 462.32 -311 463 C-311.66 463 -312.32 463 -313 463 C-313 463.66 -313 464.32 -313 465 C-313.66 465 -314.32 465 -315 465 C-315.2693335 465.59893066 -315.53866699 466.19786133 -315.81616211 466.81494141 C-317.00219356 469.00404875 -318.12045347 470.28845501 -319.94140625 471.9609375 C-320.52083984 472.50741943 -321.10027344 473.05390137 -321.69726562 473.61694336 C-322.31279297 474.19710205 -322.92832031 474.77726074 -323.5625 475.375 C-340.59865531 491.9948419 -349.06721478 513.20094052 -349.4375 536.9375 C-349.29556118 560.90451498 -338.65045926 581.301968 -322 598 C-319.82856424 599.95975492 -317.64074633 601.86056107 -315.36328125 603.6953125 C-314.68845703 604.34113281 -314.68845703 604.34113281 -314 605 C-314 605.66 -314 606.32 -314 607 C-313.17242187 607.33451172 -313.17242187 607.33451172 -312.328125 607.67578125 C-309.2694324 609.41554097 -307.1926188 611.65764482 -304.75 614.1875 C-301.68027373 617.33007409 -298.61687349 620.42212161 -295.25 623.25 C-290.43420463 627.34939606 -286.05436192 631.89495101 -281.62988281 636.40722656 C-278.52538227 639.55436684 -275.38153279 642.58305721 -272.03125 645.46875 C-267.08772778 649.73139913 -262.5678451 654.38200168 -258 659.0390625 C-254.77025802 662.30665302 -251.51488375 665.47152333 -248.03125 668.46875 C-242.85685023 672.92560605 -238.13749431 677.8144639 -233.35546875 682.68359375 C-230.01723115 686.05844822 -226.66532461 689.34474627 -223.0625 692.4375 C-217.41721218 697.29455688 -212.28661769 702.66865329 -207.06640625 707.97265625 C-202.83532243 712.24488513 -198.54004217 716.32841345 -193.97851562 720.24414062 C-189.55865222 724.16660578 -185.49418994 728.46948602 -181.35546875 732.68359375 C-178.01723115 736.05844822 -174.66532461 739.34474627 -171.0625 742.4375 C-165.41721218 747.29455688 -160.28661769 752.66865329 -155.06640625 757.97265625 C-151.4787465 761.5952041 -147.89633801 765.15434423 -144.0234375 768.47265625 C-138.20454913 773.46669472 -132.94709994 779.04342997 -127.59765625 784.52929688 C-108.16377211 804.21849479 -84.34700659 815.62176676 -56.4375 816.1875 C-19.30590542 815.71747982 4.19240972 798.29307462 29.52775764 772.87907541 C32.12894482 770.27310905 34.73880311 767.67584907 37.34747314 765.07737732 C42.43987618 760.00207107 47.52417526 754.91872291 52.60540491 749.83223265 C56.73634011 745.69724018 60.87003358 741.56502419 65.00566101 737.43472481 C65.59638333 736.84475091 66.18710566 736.25477701 66.79572865 735.64692511 C67.99607469 734.44811067 69.19642411 733.2492996 70.39677685 732.05049188 C81.6218449 720.83911389 92.83736052 709.61821847 104.04983538 698.39424814 C114.29856396 688.13557376 124.5587122 677.88840909 134.82435495 667.64666276 C145.38562247 657.10979365 155.93946966 646.56554614 166.48521948 636.01314551 C172.39796386 630.09691277 178.31351966 624.18356082 184.23677063 618.27784538 C189.27441092 613.25493559 194.30493424 608.22502713 199.3265 603.1860451 C201.88620803 600.61783502 204.44897326 598.05289344 207.02059174 595.49660492 C209.81197701 592.72165422 212.58760434 589.9312704 215.36193848 587.13926697 C216.17116965 586.3396408 216.98040082 585.54001464 217.81415415 584.71615738 C226.37312182 576.04479754 231.96572301 566.01007759 232.375 553.625 C231.98251851 541.01207213 227.7848135 530.0005338 219 521 C217.81251084 519.94883789 216.61245723 518.91175419 215.40234375 517.88671875 C210.47437301 513.60924015 205.90239035 509.00957876 201.3125 504.375 C200.41055908 503.46927246 199.50861816 502.56354492 198.5793457 501.63037109 C195.23394556 498.27078694 191.89311608 494.90668738 188.5526123 491.54223633 C185.267082 488.23365649 181.97766209 484.92897519 178.6875 481.625 C177.83518799 480.76438965 176.98287598 479.9037793 176.10473633 479.01708984 C171.86963506 474.76481189 167.56302748 470.69933639 163.01293945 466.78808594 C159.09037078 463.30368413 155.4396027 459.53996928 151.75 455.8125 C150.46367676 454.52049683 150.46367676 454.52049683 149.15136719 453.20239258 C145.51505061 449.54986017 141.88475629 445.89136365 138.25390625 442.23339844 C135.58802403 439.54934844 132.9190819 436.86836759 130.25 434.1875 C129.44143555 433.37063721 128.63287109 432.55377441 127.79980469 431.7121582 C123.56891356 427.4632202 119.27645859 423.40115585 114.6628418 419.56835938 C109.88297094 415.06008007 107.90775525 409.19536422 107.6875 402.75 C107.81635297 394.88996892 111.63715874 390.0946881 117.06225586 384.79296875 C136.99563905 366.34887575 160.8603766 355.96028248 188.1953125 356.69921875 C200.50497009 357.31192805 211.95117533 360.05098267 223.125 365.25 C223.86999756 365.59603271 224.61499512 365.94206543 225.38256836 366.29858398 C236.73495873 371.96527767 245.36291807 381.11208967 254.125 390.0625 C256.18659531 392.1610357 258.25150508 394.25622997 260.3203125 396.34765625 C260.815811 396.84860809 261.31130951 397.34955994 261.82182312 397.86569214 C265.14896658 401.20582178 268.58760061 404.35080782 272.171875 407.40991211 C281.6706195 415.67184092 290.37796201 424.99417722 298 435 C298.93972656 436.19689453 298.93972656 436.19689453 299.8984375 437.41796875 C330.06428289 477.12607136 342.1512056 526.15739609 336.22412109 575.46386719 C335.64639526 579.35038642 334.87300023 583.16993702 334 587 C333.80132324 587.89895996 333.60264648 588.79791992 333.39794922 589.72412109 C326.56930637 619.90825703 313.5947718 649.61823799 293 673 C292.23558594 673.87398437 291.47117187 674.74796875 290.68359375 675.6484375 C286.81667841 680.00607813 282.84536931 684.20597786 278.68359375 688.28125 C276.84345701 690.15981187 275.14345462 692.12414294 273.4375 694.125 C270.52369062 697.50814781 267.47507499 700.20483099 264 703 C262.31864556 704.65384136 260.65686198 706.32190964 259 708 C257.65702087 709.34452043 256.31319763 710.68819799 254.96875 712.03125 C254.24042969 712.75957031 253.51210938 713.48789062 252.76171875 714.23828125 C228 739 228 739 225.69408607 741.30507278 C222.99854641 744.00145405 220.3055505 746.7003476 217.6133728 749.40008545 C216.53460299 750.48178722 215.45582661 751.56348244 214.37704468 752.64517212 C213.80644695 753.21732075 213.23584923 753.78946938 212.64796066 754.37895584 C199.46756561 767.59483497 186.28135479 780.8048988 173.09189415 794.01173019 C165.47275974 801.64117087 157.85551496 809.27248048 150.24267578 816.90820312 C143.58817686 823.5826942 136.93011845 830.2536108 130.26784003 836.92033696 C126.74772849 840.44304384 123.22936715 843.96745784 119.71528244 847.49617767 C116.40525962 850.81987587 113.09046292 854.13873979 109.77210236 857.45411301 C108.56231396 858.66444693 107.35420903 859.87646657 106.1480217 861.09038925 C99.08368674 868.19776227 91.91239527 874.82772555 84 881 C83.31291647 881.53828304 82.62583294 882.07656609 81.9179287 882.63116074 C35.56078707 918.6612302 -25.08104368 933.763023 -83.125 926.75 C-135.91744375 919.82184689 -181.84084715 896.74082271 -219.15234375 858.81640625 C-220.97839692 857.0212377 -222.86614517 855.35074867 -224.8125 853.6875 C-228.20195672 850.77749492 -231.36450415 847.67838909 -234.5 844.5 C-237.51230453 841.44682295 -240.5354895 838.45927547 -243.8125 835.6875 C-248.4196963 831.76425861 -252.60038538 827.42490366 -256.85327148 823.12719727 C-260.51411208 819.4426651 -264.24552739 815.92825553 -268.2109375 812.5703125 C-270.2331628 810.79534619 -272.11214627 808.91700977 -274 807 C-276.43900082 804.52340379 -278.90742422 802.17969143 -281.5625 799.9375 C-285.75955269 796.33883898 -289.61262642 792.42540585 -293.5 788.5 C-299.08544012 782.82499254 -299.08544012 782.82499254 -305 777.5 C-309.79514352 773.4619844 -314.1045078 768.91874941 -318.51171875 764.46875 C-321.59207796 761.36994552 -324.65516604 758.31670228 -328 755.5 C-332.79514352 751.4619844 -337.1045078 746.91874941 -341.51171875 742.46875 C-344.59207796 739.36994552 -347.65516604 736.31670228 -351 733.5 C-355.74660873 729.50285581 -360.03021627 725.01876691 -364.37109375 720.59179688 C-367.45485066 717.46566275 -370.57519884 714.45647516 -373.90625 711.59375 C-379.32913298 706.91776264 -384.27219085 701.7743588 -389.2890625 696.671875 C-393.47299202 692.44481219 -397.72306882 688.38130898 -402.24291992 684.51391602 C-436.41902914 655.0674726 -457.47272861 604.95745155 -462 561 C-462.37025715 555.08828324 -462.39079583 549.17130057 -462.375 543.25 C-462.37412384 542.44219086 -462.37324768 541.63438171 -462.37234497 540.80209351 C-462.23481245 502.11262637 -451.32078879 464.97542542 -433 431 C-432.66709961 430.36900391 -432.33419922 429.73800781 -431.99121094 429.08789062 C-416.77753512 400.3333223 -395.73652529 376.48057777 -372.75 353.75 C-370.30424995 351.33116858 -367.86208033 348.90879862 -365.421875 346.484375 C-364.60913116 345.68407867 -364.60913116 345.68407867 -363.77996826 344.86761475 C-360.99194043 342.0971439 -358.33982329 339.26738563 -355.78222656 336.28222656 C-351.61172091 331.46491734 -347.10616683 326.99296214 -342.58444214 322.50927734 C-341.02526273 320.9630726 -339.46941379 319.41358104 -337.91430664 317.86328125 C-334.05434197 314.01655775 -330.18890098 310.17535284 -326.3236084 306.33398438 C-323.04550558 303.07574304 -319.76955008 299.8153701 -316.49630737 296.55224609 C-314.97690534 295.03923948 -313.45448297 293.5293203 -311.93188477 292.01953125 C-307.38191509 287.49336562 -302.9858231 282.90721216 -298.80908203 278.03393555 C-294.97427728 273.72249717 -290.8155939 269.71638926 -286.71875 265.65625 C-285.73631622 264.67823581 -284.75418512 263.69991749 -283.77233887 262.72131348 C-280.16280682 259.12501016 -276.54779294 255.53423404 -272.93292236 251.94329834 C-269.8661925 248.89644421 -266.80162086 245.84744874 -263.73976135 242.79570007 C-262.32008843 241.38241371 -260.89733001 239.97222889 -259.4744873 238.56213379 C-255.78933258 234.89084638 -252.14140512 231.23995429 -248.7734375 227.2734375 C-243.66289706 221.32226668 -237.99616366 215.88698123 -232.43611145 210.36094666 C-230.30568874 208.24341912 -228.17852078 206.1226685 -226.05212402 204.00109863 C-220.77305066 198.7353148 -215.48852263 193.47501608 -210.2041626 188.21453857 C-205.72826698 183.75844939 -201.25447671 179.30026615 -196.78340149 174.83934021 C-194.69892822 172.76129658 -192.61144079 170.68631465 -190.52380371 168.6114502 C-185.07092705 163.1794316 -179.66984835 157.78064757 -174.68502808 151.90988159 C-170.8745302 147.59090326 -166.70222991 143.60346449 -162.61328125 139.55078125 C-161.62366159 138.56557914 -160.63434332 137.58007422 -159.64530945 136.59428406 C-156.53720832 133.49749959 -153.42515304 130.40470829 -150.3125 127.3125 C-146.69085099 123.71455105 -143.07089542 120.1149304 -139.45512962 116.51106834 C-138.01700539 115.07937691 -136.57588201 113.6507534 -135.13459778 112.22224426 C-134.25655991 111.34750961 -133.37852203 110.47277496 -132.47387695 109.5715332 C-131.70445267 108.80734573 -130.93502838 108.04315826 -130.14228821 107.2558136 C-127.9418997 104.93882081 -125.97763978 102.50789078 -124 100 C-122.35778969 98.30923069 -120.68594852 96.64715911 -119 95 C-117.62267628 93.63034038 -116.24667635 92.25934902 -114.87158203 90.88745117 C-114.09372345 90.11282028 -113.31586487 89.33818939 -112.51443481 88.54008484 C-108.98029732 85.01935036 -105.44881655 81.49595618 -101.91748047 77.97241211 C-100.06030736 76.12027243 -98.20223836 74.26903065 -96.34326172 72.41870117 C-93.64571307 69.73335105 -90.95146792 67.04472344 -88.2578125 64.35546875 C-87.4346756 63.53749313 -86.6115387 62.71951752 -85.76345825 61.87675476 C-82.26304669 58.37668036 -78.82921954 54.86739561 -75.60058594 51.11376953 C-68.04218692 42.3348376 -59.61746218 34.27162032 -51.45849609 26.0534668 C-49.23144853 23.80854605 -47.01325386 21.55539575 -44.80224609 19.29467773 C-42.11023596 16.54226647 -39.40359468 13.80506744 -36.68606186 11.07785988 C-35.66114198 10.0444333 -34.64132466 9.00591777 -33.62701797 7.96207237 C-23.41951581 -2.52682158 -13.74200242 -7.70572144 0 0 Z M-27.5625 18.9375 C-33.62255033 25.52953655 -39.84163515 31.93281239 -46.1875 38.25 C-47.06817139 39.12736816 -47.94884277 40.00473633 -48.85620117 40.90869141 C-51.56882173 43.60779433 -54.28396942 46.30432875 -57 49 C-60.62796996 52.60119527 -64.25246873 56.20583481 -67.875 59.8125 C-68.68864014 60.6178418 -69.50228027 61.42318359 -70.34057617 62.25292969 C-73.77267012 65.67033667 -77.13266119 69.09232619 -80.27734375 72.77734375 C-84.86979165 78.11214518 -89.90522125 83.01608178 -94.89712524 87.97229004 C-96.72512179 89.78735566 -98.54982956 91.60567301 -100.3737793 93.42480469 C-104.90156143 97.93931916 -109.43480807 102.44833337 -113.96789551 106.95751953 C-117.80966339 110.77945616 -121.64930702 114.60350376 -125.48623657 118.43029785 C-127.27155545 120.20920255 -129.05989139 121.98503396 -130.84838867 123.76074219 C-135.83507164 128.72518709 -140.72216601 133.71197639 -145.29272461 139.06787109 C-148.87706406 143.12427927 -152.78046596 146.88003645 -156.625 150.6875 C-157.53072754 151.58944092 -158.43645508 152.49138184 -159.36962891 153.4206543 C-162.72921306 156.76605444 -166.09331262 160.10688392 -169.45776367 163.4473877 C-172.76634351 166.732918 -176.07102481 170.02233791 -179.375 173.3125 C-180.23561035 174.16481201 -181.0962207 175.01712402 -181.98291016 175.89526367 C-185.51212817 179.41022573 -188.98603727 182.91669657 -192.21289062 186.71289062 C-197.21913722 192.5341076 -202.75081978 197.86038798 -208.1934967 203.2686615 C-210.25671313 205.31897573 -212.31666812 207.37251866 -214.37585449 209.42687988 C-219.48797449 214.52571466 -224.60555109 219.61906133 -229.72296143 224.71258545 C-234.05793946 229.02775217 -238.39080842 233.34501626 -242.72096252 237.6650238 C-244.73895718 239.67659187 -246.75996659 241.68509595 -248.78112793 243.69348145 C-254.13474714 249.02595424 -259.4227062 254.33410522 -264.31970215 260.09484863 C-268.0273985 264.29870021 -272.08250237 268.18152262 -276.0625 272.125 C-277.02251375 273.0805937 -277.98222453 274.03649184 -278.94165039 274.99267578 C-282.46770473 278.50550592 -285.9992429 282.01280573 -289.53063965 285.52026367 C-292.52691208 288.49665517 -295.52102231 291.47519157 -298.51242065 294.45648193 C-299.8988534 295.83653133 -301.28837298 297.21347744 -302.67797852 298.59033203 C-307.02817289 302.92377446 -311.20097909 307.31840022 -315.20043945 311.97558594 C-318.82631493 316.05451139 -322.74874423 319.8486206 -326.625 323.6875 C-327.53072754 324.58944092 -328.43645508 325.49138184 -329.36962891 326.4206543 C-332.72921306 329.76605444 -336.09331262 333.10688392 -339.45776367 336.4473877 C-342.76634351 339.732918 -346.07102481 343.02233791 -349.375 346.3125 C-350.23561035 347.16481201 -351.0962207 348.01712402 -351.98291016 348.89526367 C-356.32194007 353.21676647 -360.48505875 357.61091749 -364.47595215 362.2555542 C-366.5068751 364.5801761 -368.67391724 366.73586774 -370.890625 368.8828125 C-371.75977539 369.73302979 -372.62892578 370.58324707 -373.52441406 371.45922852 C-374.42385742 372.33893311 -375.32330078 373.2186377 -376.25 374.125 C-384.2139317 382.00296525 -391.40968703 389.95958789 -398 399 C-398.75925781 399.97582031 -399.51851562 400.95164062 -400.30078125 401.95703125 C-406.48558493 409.93638937 -411.84717635 418.3320872 -417 427 C-417.41926758 427.70398926 -417.83853516 428.40797852 -418.27050781 429.13330078 C-431.51464475 451.5993945 -441.42561123 476.32510085 -446.578125 501.93261719 C-446.85419796 503.28550249 -447.14531198 504.63542672 -447.453125 505.98144531 C-453.06329207 530.68310763 -451.94356217 559.52866687 -446 584 C-445.79632813 584.84691406 -445.59265625 585.69382812 -445.3828125 586.56640625 C-442.79322608 596.90876681 -439.05881398 606.70373391 -434.875 616.5 C-434.45524902 617.48621338 -434.03549805 618.47242676 -433.60302734 619.48852539 C-432.99128662 620.87092407 -432.99128662 620.87092407 -432.3671875 622.28125 C-431.82747314 623.50424805 -431.82747314 623.50424805 -431.27685547 624.75195312 C-429.83873745 627.28392076 -428.13422947 629.03513596 -426 631 C-426.23783203 629.36998047 -426.23783203 629.36998047 -426.48046875 627.70703125 C-429.91495949 599.91998806 -424.46599765 572.45456806 -407.41503906 549.90380859 C-403.40996184 544.82275777 -399.21828809 539.90421739 -395 535 C-393.95122786 533.76873578 -392.90302363 532.53698752 -391.85546875 531.3046875 C-389.88658351 528.99341526 -387.90811313 526.69090303 -385.921875 524.39453125 C-383.95353919 522.11675413 -382.00793826 519.82221279 -380.078125 517.51171875 C-374.34070974 510.67150288 -368.38851404 504.1926997 -361.98291016 497.96875 C-359.13825202 495.19527112 -356.43056497 492.37972985 -353.8527832 489.35498047 C-349.78378506 484.68085785 -345.43451223 480.32604963 -341.03125 475.96875 C-339.77254089 474.71572083 -339.77254089 474.71572083 -338.48840332 473.43737793 C-334.9314548 469.89663871 -331.3685388 466.36192676 -327.80615234 462.82666016 C-325.19159836 460.2302794 -322.58011816 457.63083434 -319.96875 455.03125 C-319.17376099 454.24455933 -318.37877197 453.45786865 -317.55969238 452.64733887 C-314.12771116 449.23031977 -310.77510523 445.80122634 -307.62304688 442.12304688 C-303.5145206 437.35129506 -299.05276976 432.94001429 -294.58444214 428.50927734 C-293.02526273 426.9630726 -291.46941379 425.41358104 -289.91430664 423.86328125 C-286.05434197 420.01655775 -282.18890098 416.17535284 -278.3236084 412.33398438 C-275.04550558 409.07574304 -271.76955008 405.8153701 -268.49630737 402.55224609 C-266.97690534 401.03923948 -265.45448297 399.5293203 -263.93188477 398.01953125 C-259.3731441 393.48463874 -254.9669917 388.88992548 -250.78222656 384.00708008 C-247.09590025 379.85567067 -243.09898831 375.99941322 -239.15625 372.09375 C-237.7380835 370.68137068 -236.31991993 369.26898839 -234.90192413 367.85643768 C-231.93933555 364.90687976 -228.97215979 361.96193688 -226.00579834 359.01617432 C-223.55418969 356.58122894 -221.10362669 354.14525184 -218.65563965 351.70666504 C-216.82931571 349.88779387 -215.00074639 348.07117348 -213.16955566 346.25720215 C-208.82476746 341.9295449 -204.65495491 337.5355757 -200.6595459 332.88439941 C-197.84320539 329.68647015 -194.81345213 326.71036779 -191.78125 323.71875 C-190.78889343 322.73207336 -190.78889343 322.73207336 -189.77648926 321.72546387 C-186.98421856 318.94933442 -184.18594584 316.17928463 -181.38818359 313.40869141 C-179.32959102 311.3683292 -177.27412097 309.32485669 -175.21875 307.28125 C-174.59875122 306.66954956 -173.97875244 306.05784912 -173.33996582 305.4276123 C-170.28170883 302.38626202 -167.34612895 299.29283793 -164.52734375 296.02734375 C-160.97911633 291.92081234 -157.20392687 288.09316587 -153.34375 284.28125 C-152.2848053 283.22798523 -152.2848053 283.22798523 -151.20446777 282.15344238 C-148.22102625 279.18616234 -145.2315929 276.22494637 -142.24267578 273.26318359 C-140.04509421 271.08381535 -137.85062062 268.90135053 -135.65625 266.71875 C-134.99250366 266.063302 -134.32875732 265.407854 -133.64489746 264.73254395 C-130.51221666 261.61609362 -127.4909081 258.46036785 -124.609375 255.109375 C-120.50063959 250.35041915 -116.05956206 245.95287796 -111.59375 241.53125 C-110.71021851 240.65150513 -109.82668701 239.77176025 -108.91638184 238.86535645 C-105.6402768 235.60343055 -102.3596502 232.34607436 -99.07867432 229.08905029 C-95.85169462 225.8851274 -92.6286192 222.67730884 -89.40625 219.46875 C-88.56751343 218.63831177 -87.72877686 217.80787354 -86.86462402 216.95227051 C-83.30432995 213.40671885 -79.81528818 209.85383242 -76.54101562 206.04101562 C-72.26159043 201.06549284 -67.59702452 196.49176897 -62.9375 191.875 C-61.97748625 190.9194063 -61.01777547 189.96350816 -60.05834961 189.00732422 C-56.53229527 185.49449408 -53.0007571 181.98719427 -49.46936035 178.47973633 C-46.47308792 175.50334483 -43.47897769 172.52480843 -40.48757935 169.54351807 C-39.1011466 168.16346867 -37.71162702 166.78652256 -36.32202148 165.40966797 C-32.61227585 161.714208 -28.95659019 158.0241088 -25.54760742 154.04760742 C-21.4956592 149.32975144 -17.0922638 144.97950699 -12.67794228 140.60277748 C-11.1405965 139.07839314 -9.60657024 137.55073346 -8.07328796 136.02226257 C-4.8225245 132.78282241 -1.56780967 129.54737081 1.6875 126.3125 C5.47435716 122.54933509 9.25952714 118.78450376 13.04050636 115.01543236 C14.54510931 113.51726615 16.05271131 112.02216452 17.56047058 110.5271759 C18.47854996 109.61239975 19.39662933 108.6976236 20.3425293 107.75512695 C21.14748337 106.9554097 21.95243744 106.15569244 22.78178406 105.33174133 C25.05532998 103.00967578 25.05532998 103.00967578 27.11531067 100.34733582 C28.99079181 98.01146858 31.04324877 96.30444334 33.37109375 94.4375 C35.88012108 92.22329842 37.96096547 89.67454508 40.125 87.12890625 C42.74053732 84.15918158 45.55782177 81.4169372 48.3984375 78.6640625 C50.43433288 76.54871754 50.94839955 75.27090235 51.5 72.375 C50.15183539 63.27488887 37.73086274 54.65334405 31.3125 48.3125 C29.0764688 46.10322092 26.84389063 43.89053287 24.61328125 41.67578125 C24.10904129 41.17983963 23.60480133 40.68389801 23.08528137 40.17292786 C20.15937371 37.26725566 17.54169502 34.24362993 15 31 C13.82163502 29.92454899 12.61301165 28.88121372 11.375 27.875 C7.91916554 24.94043666 4.93805186 21.77288521 1.9375 18.375 C-4.21793549 11.27378029 -4.21793549 11.27378029 -12.5625 7.4375 C-19.04555177 8.93358887 -23.2931979 14.19788598 -27.5625 18.9375 Z M-48 300 C-49.38156568 301.49439922 -49.38156568 301.49439922 -50.765625 303.48828125 C-51.31903564 304.24810303 -51.87244629 305.0079248 -52.44262695 305.79077148 C-53.03906006 306.62294189 -53.63549316 307.4551123 -54.25 308.3125 C-55.51937097 310.06001227 -56.78890693 311.8074047 -58.05859375 313.5546875 C-58.71069824 314.45670898 -59.36280273 315.35873047 -60.03466797 316.28808594 C-63.10322093 320.52230784 -66.20763823 324.72986964 -69.3125 328.9375 C-69.89829834 329.73269043 -70.48409668 330.52788086 -71.08764648 331.34716797 C-74.998571 336.65362549 -78.93255904 341.94147352 -82.8984375 347.20703125 C-84.42986135 349.24228785 -85.95580216 351.28102835 -87.4765625 353.32421875 C-87.88801514 353.87601807 -88.29946777 354.42781738 -88.72338867 354.99633789 C-89.86724824 356.53076121 -91.00983771 358.0661311 -92.15234375 359.6015625 C-95.45441809 363.88797613 -95.45441809 363.88797613 -98.4921875 364.51171875 C-103.87916819 363.72586745 -107.65726105 360.80558032 -112.125 357.8125 C-113.09131348 357.18118164 -114.05762695 356.54986328 -115.05322266 355.89941406 C-117.05941386 354.58725834 -119.06183251 353.26931757 -121.06054688 351.94580078 C-125.48087002 349.01972308 -129.92901737 346.13686616 -134.375 343.25 C-135.18767334 342.72035645 -136.00034668 342.19071289 -136.83764648 341.64501953 C-142.25959439 338.11411862 -147.70661864 334.62624096 -153.1875 331.1875 C-154.20432861 330.54699707 -154.20432861 330.54699707 -155.24169922 329.89355469 C-157.93269401 327.88751743 -157.93269401 327.88751743 -161 327 C-160.38282262 337.75046455 -158.34878465 348.29968645 -156.5078125 358.890625 C-156.15738352 360.9239966 -155.80728156 362.95742458 -155.45748901 364.99090576 C-154.72547614 369.24098675 -153.99058521 373.49055614 -153.25341797 377.73974609 C-152.31559154 383.14604561 -151.38330707 388.5532815 -150.45300484 393.96088028 C-149.73054459 398.15828912 -149.00592717 402.35532325 -148.28060532 406.55223846 C-147.93652322 408.54376044 -147.59289576 410.53536102 -147.24975967 412.5270462 C-145.79719229 430.87117085 -145.79719229 430.87117085 -140 447 C-137.59671471 447.09766542 -135.22220648 447.12996828 -132.81846619 447.12025452 C-132.05807102 447.12110894 -131.29767586 447.12196337 -130.51423842 447.12284368 C-127.9468875 447.12450078 -125.37960083 447.11897339 -122.81225586 447.11352539 C-120.97961936 447.11324354 -119.14698275 447.11340121 -117.31434631 447.1139679 C-112.32281938 447.11425596 -107.33131625 447.10835777 -102.33979487 447.10139394 C-97.12940894 447.09516191 -91.91902251 447.09455672 -86.70863342 447.09336853 C-76.83468975 447.09025477 -66.96075709 447.08204078 -57.08681828 447.07201904 C-45.84879999 447.06085929 -34.61078119 447.0553478 -23.37275875 447.05032361 C-0.24849971 447.0398582 22.87574953 447.02225789 46 447 C47.27270729 443.3574513 48.31868806 439.84382662 48.96182251 436.03997803 C49.20574989 434.61836365 49.20574989 434.61836365 49.4546051 433.16802979 C49.71031532 431.63417633 49.71031532 431.63417633 49.97119141 430.06933594 C50.1568013 428.97927246 50.34241119 427.88920898 50.53364563 426.76611328 C51.14424042 423.17296681 51.74799875 419.57870864 52.3515625 415.984375 C52.77431931 413.48661144 53.19745072 410.98891125 53.62094116 408.49127197 C54.50639057 403.26322251 55.38883244 398.03467925 56.26855469 392.80566406 C57.39833486 386.09044077 58.53410897 379.37624564 59.67174721 372.6623497 C60.54496345 367.50868282 61.41593418 362.35463702 62.28641891 357.20050812 C62.70475758 354.72362124 63.12342047 352.2467891 63.54240799 349.7700119 C64.1258639 346.31799138 64.70708973 342.86560327 65.28759766 339.41308594 C65.4621196 338.38242004 65.63664154 337.35175415 65.81645203 336.28985596 C65.97343063 335.35339233 66.13040924 334.41692871 66.29214478 333.4520874 C66.49841712 332.22765238 66.49841712 332.22765238 66.70885658 330.97848129 C67.04852904 329.00351622 67.04852904 329.00351622 67 327 C63.64057171 328.25482799 60.72565997 329.67882191 57.734375 331.65234375 C56.93555908 332.17586426 56.13674316 332.69938477 55.3137207 333.23876953 C54.46769287 333.79935059 53.62166504 334.35993164 52.75 334.9375 C50.94674444 336.12129158 49.1433569 337.30488215 47.33984375 338.48828125 C46.43991699 339.0807666 45.53999023 339.67325195 44.61279297 340.28369141 C40.1753366 343.19859687 35.71657593 346.08051851 31.24975586 348.95019531 C27.59541849 351.30191521 23.97076649 353.68838497 20.375 356.12890625 C19.61147217 356.64050293 18.84794434 357.15209961 18.0612793 357.67919922 C16.60205793 358.65792787 15.14987944 359.64727126 13.70629883 360.64892578 C10.78157128 362.59683933 8.36674208 363.90373607 4.94921875 364.80078125 C0.13007402 363.49227175 -2.0859326 359.88678554 -5 356 C-5.53189941 355.29439941 -6.06379883 354.58879883 -6.61181641 353.86181641 C-8.20612565 351.69707994 -9.76305612 349.50953687 -11.3125 347.3125 C-15.20980396 341.85021647 -19.13564822 336.42618403 -23.25 331.125 C-34.98230712 315.99999017 -34.98230712 315.99999017 -39.4921875 309.359375 C-39.90138428 308.75738281 -40.31058105 308.15539062 -40.73217773 307.53515625 C-41.87963413 305.8357029 -43.01628501 304.12896855 -44.15234375 302.421875 C-44.76207031 301.62265625 -45.37179687 300.8234375 -46 300 C-46.66 300 -47.32 300 -48 300 Z M122 396 C119.90851462 399.46389262 119.51347291 401.94560761 120 406 C122.63250382 410.51005545 125.66118036 413.75549489 129.56542969 417.19433594 C130.64178946 418.15659708 131.71641802 419.12079772 132.78942871 420.08679199 C133.32817123 420.5714946 133.86691376 421.0561972 134.42198181 421.55558777 C138.74578234 425.51330537 142.8280879 429.72834641 146.953125 433.890625 C147.94783877 434.88976578 148.94286143 435.88859911 149.93817139 436.887146 C153.0450104 440.00522274 156.14781536 443.12729348 159.25 446.25 C162.86670894 449.89051598 166.48516502 453.5292626 170.10787201 457.16381073 C171.53668416 458.59899922 172.96238995 460.03727818 174.38800049 461.47564697 C178.83150864 465.93580394 183.32933119 470.23249898 188.10687256 474.33172607 C191.46107564 477.28753846 194.57867306 480.47641792 197.71875 483.65625 C198.77201477 484.7151947 198.77201477 484.7151947 199.84655762 485.79553223 C202.81383766 488.77897375 205.77505363 491.7684071 208.73681641 494.75732422 C210.91618465 496.95490579 213.09864947 499.14937938 215.28125 501.34375 C215.936698 502.00749634 216.592146 502.67124268 217.26745605 503.35510254 C221.09708778 507.204679 225.04696974 510.83905972 229.15731812 514.3866272 C231.6504185 516.5694784 234.00335702 518.87371035 236.34765625 521.21484375 C236.80804794 521.67427872 237.26843964 522.13371368 237.74278259 522.60707092 C238.70255079 523.56616736 239.66109287 524.52649235 240.6184082 525.48803711 C242.06025221 526.93524385 243.50737116 528.37702026 244.95507812 529.81835938 C250.18317437 535.04237025 255.21047135 540.37125099 260 546 C260.96073038 547.0950759 261.92291762 548.18887577 262.88671875 549.28125 C285.13566471 574.73661558 299.33920796 598.95101449 298 634 C297.74997814 637.67828765 297.42633817 641.33805968 297 645 C317.98263115 625.91645909 323.96203203 584.26092652 325.8515625 557.546875 C327.68335901 513.7765795 312.72175479 470.10641744 284 437 C281.99363978 434.86692229 279.94735299 432.81312714 277.828125 430.79296875 C275.92685593 428.92826255 274.21921512 426.97035572 272.5 424.9375 C270.35078127 422.43824565 268.18488777 420.22985815 265.6484375 418.12890625 C261.72410154 414.7408962 258.08013888 411.12884578 254.4453125 407.4375 C253.55915253 406.53947411 253.55915253 406.53947411 252.65509033 405.62330627 C250.19078087 403.12275697 247.72935773 400.61953457 245.27783203 398.10644531 C228.71341305 381.15004726 210.84778042 369.37837661 186.29272461 368.70703125 C161.59387673 368.47788735 139.90592916 379.13314635 122 396 Z M-362.38525391 514.21826172 C-363.17295166 515.06541748 -363.17295166 515.06541748 -363.9765625 515.9296875 C-364.56066895 516.55496338 -365.14477539 517.18023926 -365.74658203 517.82446289 C-366.36645996 518.50114014 -366.98633789 519.17781738 -367.625 519.875 C-368.57995361 520.90838501 -368.57995361 520.90838501 -369.55419922 521.96264648 C-373.54327779 526.31339744 -377.34049904 530.75561308 -380.953125 535.42578125 C-383.00582032 538.00731983 -385.14459359 540.48579739 -387.31713867 542.96606445 C-407.98590159 566.63424352 -418.14784979 590.03794958 -416 622 C-412.99433202 652.03765658 -395.7479792 675.49836694 -374.15429688 695.03955078 C-370.43807829 698.42137708 -366.78265464 701.8675894 -363.125 705.3125 C-362.40884521 705.98514893 -361.69269043 706.65779785 -360.95483398 707.35083008 C-356.24205152 711.7895817 -351.64885377 716.3215629 -347.1015625 720.9296875 C-345.2296501 722.77376477 -343.31667215 724.49034996 -341.3125 726.1875 C-336.47919177 730.31205427 -332.07544139 734.87344657 -327.63012695 739.40698242 C-324.52554227 742.55420236 -321.38162065 745.58298153 -318.03125 748.46875 C-313.08772778 752.73139913 -308.5678451 757.38200168 -304 762.0390625 C-300.09444209 765.99038866 -296.08410122 769.72223899 -291.875 773.34765625 C-289.12060953 775.77496285 -286.56148674 778.3724216 -284 781 C-280.81944724 784.22410164 -277.65280907 787.39076882 -274.1875 790.3125 C-269.34468461 794.42432439 -264.96652263 799.00939023 -260.5 803.51953125 C-256.75206568 807.28999824 -252.95146646 810.90212483 -248.88671875 814.33203125 C-245.57486781 817.25989948 -242.53140523 820.46214372 -239.42578125 823.60546875 C-237.40257727 825.60260891 -235.35339764 827.47490684 -233.1875 829.3125 C-229.42865137 832.522389 -225.97257321 835.98789835 -222.5 839.5 C-218.48420717 843.56140093 -214.43022366 847.45487352 -210.06640625 851.14453125 C-207.91335124 853.07780371 -205.90042125 855.12131739 -203.88623047 857.19775391 C-188.53628648 872.96430381 -171.31237787 884.07850697 -150 890 C-149.17886719 890.23332031 -148.35773438 890.46664063 -147.51171875 890.70703125 C-124.48319003 896.23546906 -100.53791285 892.00808386 -79.9375 880.875 C-79.03704956 880.39909424 -79.03704956 880.39909424 -78.1184082 879.91357422 C-64.62715656 872.24569137 -53.68638887 860.00446414 -42.8581543 849.11889648 C-40.41746346 846.66737455 -37.96611458 844.22686914 -35.51367188 841.78710938 C-33.94466997 840.21678756 -32.37628767 838.64584637 -30.80859375 837.07421875 C-29.71954994 835.99124763 -29.71954994 835.99124763 -28.60850525 834.88639832 C-24.89610935 831.13950771 -21.73590053 827.51536239 -19 823 C-20.76923828 823.433125 -20.76923828 823.433125 -22.57421875 823.875 C-51.6698997 830.47283985 -84.07196423 829.1789238 -110.296875 813.7109375 C-111.18890625 813.14632813 -112.0809375 812.58171875 -113 812 C-114.01578125 811.37351562 -115.0315625 810.74703125 -116.078125 810.1015625 C-126.05799235 803.62195323 -134.08239907 795.20917521 -142.3359375 786.70703125 C-145.10509128 783.86737967 -147.89950951 781.15122478 -150.9140625 778.57421875 C-156.75203048 773.57951281 -162.04661941 768.00981906 -167.43652344 762.54296875 C-172.46086968 757.45346034 -177.51207513 752.47904215 -182.94921875 747.828125 C-188.28905679 743.0680408 -193.2026805 737.83027961 -198.22265625 732.73828125 C-202.75361063 728.16775522 -207.32477934 723.75073246 -212.21289062 719.56445312 C-215.45368266 716.7274319 -218.4197498 713.62366367 -221.421875 710.5390625 C-224.09299266 707.8248623 -226.82574111 705.25888249 -229.71875 702.78125 C-235.88607616 697.44639562 -241.50159742 691.54142127 -247.22265625 685.73828125 C-251.77378732 681.14740231 -256.3652867 676.70706741 -261.27539062 672.50195312 C-264.46660648 669.72274022 -267.36264575 666.65458004 -270.3125 663.625 C-272.42141309 661.5651314 -274.54974373 659.63867919 -276.78125 657.71875 C-282.00881167 653.18754269 -286.80008276 648.24909606 -291.64453125 643.31640625 C-295.63538702 639.2817751 -299.71652009 635.46028262 -304.01757812 631.75976562 C-308.21240607 628.03608091 -312.07416927 623.96344461 -316 619.9609375 C-320.49226359 615.41603019 -325.16100422 611.17091569 -330 607 C-348.10220038 590.78907429 -358.28082402 569.08039495 -361 545 C-361.15525995 541.95683483 -361.1899678 538.92180965 -361.1875 535.875 C-361.18814453 535.04766357 -361.18878906 534.22032715 -361.18945312 533.36791992 C-361.1302715 526.42551154 -360.37046581 519.81562016 -359 513 C-361.05715168 512.77986828 -361.05715168 512.77986828 -362.38525391 514.21826172 Z M244 548 C244.03480469 548.55945313 244.06960938 549.11890625 244.10546875 549.6953125 C244.67876713 566.67586441 238.93602804 579.10166548 227.56772614 591.26891327 C220.27787397 598.94725455 212.73811739 606.3857647 205.24094963 613.86045694 C202.70878992 616.38616701 200.17960475 618.91485284 197.65005493 621.44317627 C193.27833545 625.81202598 188.90484966 630.17910078 184.53017426 634.54499054 C178.19720916 640.86533132 171.86754655 647.18897145 165.5387477 653.51348373 C155.25676088 663.78842335 144.97290626 674.06149117 134.6875 684.33300781 C134.07350882 684.94617118 133.45951763 685.55933455 132.82692066 686.19107863 C128.46799629 690.54410167 124.10900495 694.89705765 119.75 699.25 C114.76362377 704.22944402 109.77728056 709.20892109 104.79101562 714.18847656 C104.17656833 714.80209574 103.56212103 715.41571491 102.92905411 716.0479286 C92.67428785 726.28899667 82.42149492 736.53203815 72.17010045 746.77648139 C65.85824446 753.08386643 59.54462048 759.38947167 53.22867516 765.69276187 C48.9029824 770.01001183 44.57907358 774.32904303 40.2565479 778.64946392 C37.76581235 781.13885857 35.27426391 783.62742506 32.78048325 786.11376953 C30.07274576 788.81427384 27.36813108 791.51786866 24.66424561 794.222229 C23.49210955 795.38897262 23.49210955 795.38897262 22.29629397 796.57928681 C18.1939855 800.68930064 14.2595357 804.88398265 10.48299527 809.29614234 C8.43474913 811.64943365 6.23446335 813.82433832 4 816 C1.13073759 818.83489999 -1.64486711 821.67120659 -4.25 824.75 C-8.16083334 829.33126192 -12.46143587 833.51487932 -16.76269531 837.72558594 C-19.70615979 840.62603182 -22.53066369 843.56683865 -25.22265625 846.703125 C-38.0664539 861.55946316 -52.46901285 876.30509063 -69 887 C-69.57298828 887.37995117 -70.14597656 887.75990234 -70.73632812 888.15136719 C-86.52300046 898.46927761 -104.39211917 902.63230276 -123 904 C-123 904.66 -123 905.32 -123 906 C-113.13402028 909.00536711 -103.29152215 911.48103685 -93.125 913.25 C-92.20001709 913.41274414 -91.27503418 913.57548828 -90.32202148 913.74316406 C-37.80884926 922.52098471 20.84211192 911.3871045 64.62109375 880.45703125 C65.74933698 879.64069696 66.87566922 878.82171451 68 878 C68.55445801 877.59958496 69.10891602 877.19916992 69.68017578 876.78662109 C86.00515499 864.916951 99.91720106 850.22155124 114.125 835.97265625 C116.04450095 834.05072164 117.96476536 832.12955052 119.88500977 830.20835876 C124.39263457 825.69765163 128.89771068 821.18440823 133.401824 816.67019504 C138.51788295 811.54291388 143.63681799 806.41850819 148.75598907 801.29433453 C157.50659948 792.53507794 166.25510818 783.77372723 175.00117493 775.00993347 C180.99040573 769.00868325 180.99040573 769.00868325 183.87944031 766.12055969 C186.11954452 763.88045548 188.35127876 761.63222743 190.58203125 759.3828125 C192.32545173 757.6301396 194.06894335 755.87753744 195.8125 754.125 C196.67681641 753.25230469 197.54113281 752.37960937 198.43164062 751.48046875 C202.23855917 747.65918447 206.04090234 743.89838233 210.140625 740.390625 C214.384621 736.74833783 218.15013883 732.73313596 221.9375 728.625 C223.33365366 727.12668875 224.73078233 725.6292854 226.12890625 724.1328125 C226.79293457 723.42157227 227.45696289 722.71033203 228.14111328 721.97753906 C237.98113208 711.50943396 237.98113208 711.50943396 241 710 C241 709.34 241 708.68 241 708 C241.99 707.67 242.98 707.34 244 707 C245.71289005 705.27234836 245.71289005 705.27234836 247.375 703.1875 C250.04504792 700.03148102 252.77068542 697.58345167 256 695 C257.78532461 693.08530404 259.48866255 691.11620715 261.18359375 689.12109375 C262.33524784 687.77625898 263.51251824 686.45261657 264.72265625 685.16015625 C280.94632045 667.67998958 288.24583556 644.42899237 287.375 620.88671875 C286.20657808 602.34897471 278.5437914 586.35935028 267 572 C266.47035645 571.33790527 265.94071289 570.67581055 265.39501953 569.99365234 C263.58496193 567.73821148 261.76415239 565.49201956 259.9375 563.25 C259.35983887 562.54045166 258.78217773 561.83090332 258.18701172 561.09985352 C252.48525938 554.17283803 252.48525938 554.17283803 246 548 C245.34 548 244.68 548 244 548 Z " fill="#000000" transform="translate(578,53)"/>
<path d="M0 0 C4.66995382 1.76290757 6.42616543 4.98956266 9.125 9.0546875 C10.26694178 10.70531847 11.41021565 12.35502851 12.5546875 14.00390625 C13.14088867 14.85903809 13.72708984 15.71416992 14.33105469 16.59521484 C17.21581929 20.75119171 20.23354824 24.80632361 23.25 28.8671875 C24.41191303 30.43976831 25.57337648 32.0126814 26.734375 33.5859375 C27.29705078 34.34777344 27.85972656 35.10960937 28.43945312 35.89453125 C31.13343261 39.5468557 33.81729016 43.20658096 36.5 46.8671875 C37.20600342 47.83047974 37.20600342 47.83047974 37.92626953 48.81323242 C38.99270038 50.26858018 40.05888223 51.72411038 41.125 53.1796875 C45.28165904 51.72027228 48.53746206 49.65985501 52.125 47.1171875 C52.68461426 46.72668213 53.24422852 46.33617676 53.82080078 45.93383789 C56.78636384 43.86092339 59.71579013 41.74769896 62.6171875 39.5859375 C63.184375 39.172229 63.7515625 38.75852051 64.3359375 38.33227539 C65.91757351 37.1773748 67.48651723 36.00515095 69.0546875 34.83203125 C72.77866549 32.82790569 74.9589276 32.47549323 79.125 33.1796875 C81.28650049 35.87197691 82.13972145 37.44413858 82.07006836 40.92431641 C81.87034424 41.90835449 81.67062012 42.89239258 81.46484375 43.90625 C81.14265869 45.56515259 81.14265869 45.56515259 80.81396484 47.25756836 C80.56598145 48.42811768 80.31799805 49.59866699 80.0625 50.8046875 C79.82225098 52.00424072 79.58200195 53.20379395 79.33447266 54.43969727 C78.84477239 56.87083679 78.34677114 59.30031955 77.84033203 61.72802734 C77.1977849 64.82848175 76.58871332 67.93266311 75.99609375 71.04296875 C75.66516521 72.73459109 75.33321218 74.4260135 75 76.1171875 C74.85425537 76.88434082 74.70851074 77.65149414 74.55834961 78.44189453 C73.74238132 82.40026645 73.03352991 85.32106113 70.125 88.1796875 C67.2379303 88.72261047 67.2379303 88.72261047 63.62133789 88.7824707 C62.95134451 88.79854811 62.28135113 88.81462551 61.59105492 88.83119011 C59.32232315 88.87983882 57.0543186 88.89913299 54.78515625 88.91796875 C53.14663074 88.94529965 51.50812643 88.9739275 49.86964417 89.0037384 C44.28829009 89.0955976 38.70692717 89.1392403 33.125 89.1796875 C31.05849198 89.19675155 28.99198401 89.21382116 26.92547607 89.230896 C13.46598594 89.33503815 0.00697362 89.36605084 -13.45288086 89.36499023 C-19.36027722 89.36488652 -25.26755896 89.37880411 -31.17492771 89.39576244 C-35.77044731 89.40683573 -40.36593807 89.40891129 -44.96146965 89.40838051 C-47.14358878 89.40955741 -49.32570873 89.41396288 -51.50781441 89.42171288 C-54.52295629 89.43146502 -57.53783276 89.42865942 -60.55297852 89.42260742 C-61.44359482 89.42822693 -62.33421112 89.43384644 -63.2518158 89.43963623 C-64.0705014 89.43544174 -64.88918701 89.43124725 -65.73268127 89.42692566 C-66.44049523 89.42747043 -67.14830919 89.42801519 -67.87757206 89.42857647 C-70.24525951 89.13355141 -71.84325606 88.41614586 -73.875 87.1796875 C-77.70080222 79.84376012 -78.49083179 69.89557126 -80.09204102 61.80126953 C-80.56457092 59.41924802 -81.04844195 57.03971514 -81.53320312 54.66015625 C-81.83922349 53.13034457 -82.14458542 51.60040099 -82.44921875 50.0703125 C-82.59292404 49.36706848 -82.73662933 48.66382446 -82.88468933 47.93927002 C-84.88538289 37.69526184 -84.88538289 37.69526184 -81.875 33.1796875 C-75.92601783 32.31644268 -72.3990076 34.20504841 -67.69921875 37.5546875 C-67.04798538 37.9986084 -66.39675201 38.4425293 -65.7257843 38.89990234 C-63.66054451 40.31149142 -61.61126789 41.74432172 -59.5625 43.1796875 C-57.4933119 44.61085393 -55.42109733 46.0373885 -53.34565735 47.45947266 C-52.05817834 48.34359218 -50.77480994 49.23373331 -49.49601746 50.13037109 C-46.47025802 52.43490047 -46.47025802 52.43490047 -42.875 53.1796875 C-41.37107236 51.27491964 -39.9920739 49.3679091 -38.625 47.3671875 C-37.72290809 46.07443511 -36.8191715 44.78282931 -35.9140625 43.4921875 C-35.42583008 42.79480469 -34.93759766 42.09742188 -34.43457031 41.37890625 C-31.68244581 37.49801434 -28.83605434 33.68693239 -26 29.8671875 C-22.425263 25.04895759 -18.87977302 20.21803251 -15.453125 15.29296875 C-14.91284668 14.51671143 -14.37256836 13.7404541 -13.81591797 12.94067383 C-12.7986678 11.471894 -11.78694163 9.99926735 -10.78173828 8.5222168 C-5.10453836 0.31903365 -5.10453836 0.31903365 0 0 Z M-1.875 17.1796875 C-3.42581814 18.95602302 -4.84225198 20.73115031 -6.25 22.6171875 C-6.68916748 23.19702393 -7.12833496 23.77686035 -7.58081055 24.37426758 C-12.09077637 30.37621649 -16.39503656 36.5232727 -20.70703125 42.66796875 C-24.08036523 47.47504921 -27.46472167 52.27372939 -30.875 57.0546875 C-31.41487549 57.82192139 -31.95475098 58.58915527 -32.51098633 59.37963867 C-33.02298584 60.09482666 -33.53498535 60.81001465 -34.0625 61.546875 C-34.50980469 62.17706543 -34.95710938 62.80725586 -35.41796875 63.45654297 C-37.06812884 65.40808954 -38.73019485 66.79310916 -40.875 68.1796875 C-45.74905305 68.14647419 -49.34190106 65.11837029 -53.1875 62.4296875 C-54.5176658 61.520009 -55.84839043 60.6111471 -57.1796875 59.703125 C-57.81487305 59.26709961 -58.45005859 58.83107422 -59.10449219 58.38183594 C-62.29952617 56.21245545 -65.58202622 54.19579389 -68.875 52.1796875 C-68.37138177 57.92093531 -67.49265007 63.52684088 -66.375 69.1796875 C-66.17910278 70.1862439 -66.17910278 70.1862439 -65.97924805 71.21313477 C-65.52416627 74.47566043 -65.52416627 74.47566043 -63.875 77.1796875 C-62.24276544 77.27574614 -60.6063561 77.30156571 -58.97129822 77.29994202 C-57.37896111 77.30200401 -57.37896111 77.30200401 -55.75445557 77.30410767 C-54.57985779 77.30051239 -53.40526001 77.29691711 -52.19506836 77.29321289 C-50.96597244 77.29335892 -49.73687653 77.29350494 -48.47053528 77.2936554 C-45.09051328 77.29307642 -41.71055171 77.28804714 -38.33054042 77.28108144 C-34.80178806 77.27484738 -31.27303497 77.27424406 -27.74427795 77.27305603 C-21.05776881 77.26994287 -14.37127594 77.26172968 -7.68477398 77.25170654 C-0.07425697 77.24054494 7.5362608 77.23503483 15.14678395 77.23001111 C30.80620034 77.21954706 46.4655943 77.20120176 62.125 77.1796875 C63.775 69.2596875 65.425 61.3396875 67.125 53.1796875 C63.3815523 54.11554943 61.78745776 54.91033026 58.75390625 57.0859375 C57.93212891 57.66472656 57.11035156 58.24351562 56.26367188 58.83984375 C54.5488098 60.0645595 52.83526215 61.29111786 51.12304688 62.51953125 C50.29998047 63.09832031 49.47691406 63.67710937 48.62890625 64.2734375 C47.88455322 64.80646484 47.1402002 65.33949219 46.37329102 65.88867188 C43.89253229 67.31317531 41.9630333 67.87788548 39.125 68.1796875 C35.22009159 66.87805136 33.97064958 64.50347435 31.75 61.2421875 C30.85360562 59.95651427 29.95643205 58.67138405 29.05859375 57.38671875 C28.58276855 56.70174316 28.10694336 56.01676758 27.61669922 55.31103516 C25.05706999 51.65382351 22.43278676 48.04356368 19.8125 44.4296875 C16.34435765 39.64602501 12.8891868 34.85474083 9.4765625 30.03125 C8.88399658 29.19819336 8.29143066 28.36513672 7.6809082 27.50683594 C6.53611932 25.89666096 5.3964563 24.28282688 4.26245117 22.66503906 C3.49251831 21.58561035 3.49251831 21.58561035 2.70703125 20.484375 C2.02991089 19.5250708 2.02991089 19.5250708 1.33911133 18.54638672 C0.93845459 18.09537598 0.53779785 17.64436523 0.125 17.1796875 C-0.535 17.1796875 -1.195 17.1796875 -1.875 17.1796875 Z " fill="#000000" transform="translate(531.875,393.8203125)"/>
<path d="M0 0 C7.35511042 5.17836435 12.1778287 11.10847893 14 20 C14.9280181 30.33312464 12.54520724 37.88171468 5.96484375 45.8671875 C3.47685364 48.56786861 0.82774052 50.96725053 -2.0078125 53.296875 C-7.32856161 57.84559385 -11.86334098 63.15542007 -16.5 68.37890625 C-18.85731684 70.85040562 -21.3303182 72.88186704 -24 75 C-24.33 75.66 -24.66 76.32 -25 77 C-25.66 77 -26.32 77 -27 77 C-27.26296875 77.58910156 -27.5259375 78.17820312 -27.796875 78.78515625 C-30.37794104 83.53666419 -34.85089744 87.06635417 -39 90.4375 C-42.05466867 93.04669616 -44.52482493 95.81397224 -47.12109375 98.86328125 C-50.24167341 102.41204856 -53.62061229 105.69961096 -57 109 C-53.20738649 113.53602274 -49.2880628 117.8461166 -45.07397461 121.99194336 C-44.51542282 122.5458223 -43.95687103 123.09970123 -43.38139343 123.67036438 C-42.18103021 124.86031101 -40.97956332 126.04914519 -39.77708244 127.23695183 C-37.8691806 129.12262044 -35.96545023 131.01240907 -34.06288147 132.90345764 C-28.65743451 138.27550664 -23.24783592 143.64331841 -17.82788086 149.00073242 C-14.50117606 152.28963618 -11.18195763 155.58594087 -7.86731148 158.88699532 C-6.60988643 160.13641019 -5.34969912 161.3830519 -4.08662224 162.62675285 C13.71027214 180.15524306 13.71027214 180.15524306 14.375 193.75 C14.15754548 201.69917062 11.75739906 208.57961458 6.3125 214.4375 C-4.21551313 224.04062226 -16.97910052 223.63778128 -30.41943359 223.17919922 C-44.13090052 222.22705005 -53.29789905 212.03758006 -62.43017578 202.83056641 C-64.01761152 201.23226796 -65.61564809 199.64511673 -67.21484375 198.05859375 C-68.2272056 197.04491268 -69.23894815 196.03061267 -70.25 195.015625 C-71.16265625 194.10071289 -72.0753125 193.18580078 -73.015625 192.24316406 C-75 190 -75 190 -75 188 C-75.99 187.67 -76.98 187.34 -78 187 C-79.4296875 185.51171875 -79.4296875 185.51171875 -80.875 183.6875 C-82.66584392 181.51384669 -84.21814224 179.82660488 -86.4375 178.0625 C-88.67126397 176.26459241 -90.27316314 174.59060469 -92.10888672 172.41748047 C-96.11860391 167.78691225 -100.43301901 163.52775775 -104.8203125 159.2578125 C-106.50710882 157.59826426 -108.19328821 155.93808877 -109.87890625 154.27734375 C-112.50401276 151.69545695 -115.13260394 149.11760366 -117.77197266 146.55029297 C-120.34147315 144.04776885 -122.8944333 141.52929741 -125.4453125 139.0078125 C-126.22875031 138.25331818 -127.01218811 137.49882385 -127.81936646 136.72146606 C-135.70585965 128.87351025 -140.04791015 120.67137637 -140.375 109.5 C-140.22278981 98.98662467 -137.07441091 91.78485154 -129.84619141 84.19311523 C-129.32611322 83.63875258 -128.80603504 83.08438993 -128.27019691 82.51322842 C-121.05306748 74.86817951 -113.62798153 67.42278826 -106.2109375 59.97265625 C-105.42904682 59.18669004 -104.64715614 58.40072384 -103.84157181 57.59094048 C-99.71565329 53.44435308 -95.5866045 49.30091168 -91.45507812 45.15991211 C-87.21257042 40.90627564 -82.98189164 36.64106744 -78.75362206 32.37328434 C-75.47275784 29.0662236 -72.18298901 25.76812927 -68.89079666 22.47234917 C-67.3270445 20.90375272 -65.76664718 19.3318038 -64.20981979 17.7563343 C-47.82496252 1.18725089 -23.62987998 -14.55404372 0 0 Z M-49.46972656 19.82275391 C-50.26280212 20.60706787 -51.05587769 21.39138184 -51.87298584 22.19946289 C-54.47486484 24.77944851 -57.0581554 27.37715973 -59.640625 29.9765625 C-61.45351447 31.78608069 -63.26714536 33.59485636 -65.08148193 35.40292358 C-68.87533662 39.18942013 -72.66027175 42.98453118 -76.43847656 46.78662109 C-80.78891559 51.16424654 -85.15704658 55.52359542 -89.53483987 59.87385237 C-93.76705366 64.08052096 -97.98497583 68.30130175 -102.19713593 72.5280571 C-103.98115394 74.31539765 -105.7688581 76.0990671 -107.5603714 77.87889481 C-110.0685356 80.37428 -112.55998268 82.88527991 -115.04785156 85.40087891 C-115.78249634 86.12540253 -116.51714111 86.84992615 -117.27404785 87.59640503 C-122.74684379 93.1820388 -127.05120746 99.32086162 -128.62890625 107.1015625 C-128.60699219 107.93429687 -128.58507812 108.76703125 -128.5625 109.625 C-128.56378906 110.46289062 -128.56507813 111.30078125 -128.56640625 112.1640625 C-127.10931824 119.45955142 -122.98222483 124.59241707 -117.73046875 129.625 C-117.131241 130.21619629 -116.53201324 130.80739258 -115.91462708 131.41650391 C-114.01491948 133.28747928 -112.10205109 135.14422793 -110.1875 137 C-107.6768013 139.45408083 -105.17167597 141.91378881 -102.66796875 144.375 C-102.07091629 144.95991714 -101.47386383 145.54483429 -100.85871887 146.1474762 C-97.16374667 149.78666519 -93.66571765 153.52667959 -90.31420898 157.48779297 C-88.67113192 159.37841518 -86.87907487 160.98368222 -84.9375 162.5625 C-81.62992804 165.34985191 -78.89868187 168.31871438 -76.2265625 171.71484375 C-75.82179688 172.13894531 -75.41703125 172.56304688 -75 173 C-74.34 173 -73.68 173 -73 173 C-72.72886383 173.59514404 -72.45772766 174.19028809 -72.17837524 174.8034668 C-71.0167064 176.96885867 -69.86198687 178.40260342 -68.14599609 180.14453125 C-67.57134613 180.73194092 -66.99669617 181.31935059 -66.40463257 181.92456055 C-65.47344101 182.85909058 -65.47344101 182.85909058 -64.5234375 183.8125 C-63.87935944 184.46323486 -63.23528137 185.11396973 -62.57168579 185.78442383 C-61.20750298 187.15872147 -59.84060173 188.53032527 -58.47119141 189.89941406 C-56.39283715 191.98212545 -54.33098721 194.08026644 -52.26953125 196.1796875 C-50.93848456 197.51660596 -49.60648297 198.85257453 -48.2734375 200.1875 C-47.36046402 201.12203003 -47.36046402 201.12203003 -46.42904663 202.07543945 C-39.88571583 208.55093784 -33.26462542 211.88667125 -24 212 C-16.5020495 211.92631007 -9.12284949 211.79572941 -3 207 C0.80012011 202.22549012 2.37835002 198.3129187 2.27716827 192.16608143 C1.37619546 185.12494194 -3.47448766 179.95461265 -8.35742188 175.2043457 C-8.9855629 174.57722687 -9.61370392 173.95010803 -10.26087952 173.3039856 C-12.32095765 171.25173466 -14.39470885 169.21391125 -16.46875 167.17578125 C-17.91171415 165.74283078 -19.35371607 164.30891076 -20.7947998 162.87406921 C-24.57892895 159.11080792 -28.37447744 155.35928631 -32.17303467 151.6105957 C-38.25525149 145.60383826 -44.31879878 139.57821944 -50.38441467 133.55470848 C-52.4995779 131.45718915 -54.61892913 129.36398057 -56.73913574 127.27156067 C-58.04033588 125.98358389 -59.34148601 124.69555659 -60.64257812 123.4074707 C-61.22971085 122.83021744 -61.81684357 122.25296417 -62.42176819 121.65821838 C-70.67577054 113.47074439 -70.67577054 113.47074439 -71.63616943 109.11425781 C-70.69921841 104.52757557 -68.12854327 102.34930226 -64.82128906 99.171875 C-63.83606262 98.1901532 -63.83606262 98.1901532 -62.83093262 97.18859863 C-60.65610554 95.02814755 -58.46103529 92.88951431 -56.265625 90.75 C-54.74918293 89.24983446 -53.234208 87.74818453 -51.72064209 86.24511719 C-47.73013332 82.28886213 -43.72284464 78.35006769 -39.7109375 74.41552734 C-33.29947304 68.12236966 -26.91300238 61.80387766 -20.52788544 55.48400879 C-18.29762933 53.28160466 -16.05987236 51.08705408 -13.82086182 48.89355469 C-12.44583364 47.53858455 -11.07096748 46.18344998 -9.69628906 44.828125 C-9.07481995 44.22327271 -8.45335083 43.61842041 -7.81304932 42.99523926 C-2.73330186 37.96756453 1.67749086 33.1926188 2.25 25.75 C1.87676424 20.15146355 0.37576165 15.9233498 -3.875 12.1875 C-9.84046131 8.01167709 -14.64633965 7.63550837 -21.75 7.625 C-23.03390625 7.58826172 -23.03390625 7.58826172 -24.34375 7.55078125 C-25.61992187 7.54498047 -25.61992187 7.54498047 -26.921875 7.5390625 C-28.06027832 7.52673584 -28.06027832 7.52673584 -29.22167969 7.51416016 C-37.81260521 9.01643975 -43.50203433 13.7719289 -49.46972656 19.82275391 Z " fill="#000000" transform="translate(485,528)"/>
<path d="M0 0 C0.94230469 -0.01611328 1.88460937 -0.03222656 2.85546875 -0.04882812 C17.18592007 -0.05873853 25.39009265 6.41773782 35.3184967 16.20161438 C36.03412277 16.91657578 36.74974884 17.63153717 37.48706055 18.36816406 C38.26877625 19.14155624 39.05049194 19.91494843 39.855896 20.71177673 C42.41322273 23.24519984 44.96300483 25.78603909 47.51171875 28.328125 C49.30045148 30.10787916 51.08925577 31.8875614 52.87812805 33.66717529 C56.61622555 37.38883551 60.34997698 41.11481081 64.08129883 44.84326172 C68.37357773 49.13190435 72.67882366 53.4072226 76.99015015 57.67670846 C81.16423845 61.81172556 85.32428125 65.96064791 89.47944069 70.11467743 C91.23709015 71.86813961 92.99883316 73.61750897 94.76483727 75.36255646 C97.23901481 77.80968683 99.69668172 80.27235327 102.15112305 82.73925781 C102.87282181 83.44612228 103.59452057 84.15298676 104.33808899 84.88127136 C113.20961722 93.88078416 117.4375 102.88700935 117.4375 115.46166992 C117.1259048 130.15798673 106.87567082 139.85892618 97.03173828 149.7121582 C96.26634735 150.48587265 95.50095642 151.2595871 94.71237183 152.05674744 C92.212019 154.58095226 89.70429859 157.09765932 87.1953125 159.61328125 C85.43701309 161.38056101 83.67878472 163.14791146 81.92062378 164.91532898 C78.24781234 168.60456204 74.5706911 172.28944016 70.89111328 175.97192383 C66.18984054 180.67859425 61.50505224 185.4011506 56.82393074 190.12785053 C53.20345882 193.77812557 49.57172517 197.41703612 45.9368248 201.05293846 C44.20486622 202.78908741 42.47700524 204.5293346 40.7534523 206.27382851 C38.33972819 208.7145511 35.91053226 211.1388113 33.47705078 213.55981445 C32.42774384 214.63137283 32.42774384 214.63137283 31.35723877 215.72457886 C22.11220218 224.8359521 13.12206959 227.49545049 0.5 227.5625 C-0.92119141 227.5934375 -0.92119141 227.5934375 -2.37109375 227.625 C-12.28250882 227.67923483 -20.23363522 225.70200666 -27.8984375 219.26953125 C-33.80168089 213.4246203 -36.42648758 206.79762424 -37.25 198.5625 C-36.7698114 183.98736376 -25.79581682 175.07840774 -16.1796875 165.51953125 C-15.26921661 164.61047531 -14.35874573 163.70141937 -13.42068481 162.76481628 C-11.02140541 160.36931698 -8.619141 157.976834 -6.21618652 155.58502197 C-3.77641814 153.15551155 -1.33949655 150.72314935 1.09765625 148.29101562 C4.66790163 144.72868554 8.23965444 141.16787492 11.81298828 137.60864258 C12.5702269 136.85400223 13.32746552 136.09936188 14.10765076 135.32185364 C15.30834604 134.12591722 16.50978103 132.93072158 17.71278381 131.73710632 C19.92678346 129.53639949 22.08653051 127.30703729 24.16796875 124.98046875 C24.68423828 124.41005859 25.20050781 123.83964844 25.73242188 123.25195312 C26.80078161 122.06738121 27.86580345 120.87979166 28.92773438 119.68945312 C30.28705394 118.19334669 31.70196958 116.74814221 33.125 115.3125 C33.785 115.3125 34.445 115.3125 35.125 115.3125 C32.71834176 110.76827626 29.61330447 107.5588874 25.97290039 104.01269531 C25.35465897 103.4021933 24.73641754 102.79169128 24.09944153 102.16268921 C22.76092141 100.84177737 21.42020247 99.52309073 20.07753181 98.20639801 C17.94904071 96.11744817 15.82825668 94.02095821 13.70957947 91.92205811 C7.68629105 85.95669176 1.65353739 80.00104029 -4.39428711 74.06054688 C-8.09787113 70.4216205 -11.78898125 66.77042288 -15.47265816 63.11135101 C-16.87415067 61.72406389 -18.28029274 60.34145686 -19.6912365 58.96378326 C-21.67040233 57.03063966 -23.63330802 55.08223203 -25.59350586 53.12988281 C-26.17285889 52.57164825 -26.75221191 52.0134137 -27.34912109 51.43826294 C-33.56932736 45.17214873 -36.47868568 37.85027631 -36.96875 29.078125 C-36.69552265 21.01791824 -33.65591763 13.94828999 -27.875 8.3125 C-19.0548335 1.76287141 -10.80730356 -0.03665978 0 0 Z M-21.8125 19.5 C-24.38077746 23.56571381 -25.13937119 27.53676235 -24.875 32.3125 C-22.41641041 41.49123448 -14.53802109 48.02784653 -7.44140625 53.90234375 C-5.875 55.3125 -5.875 55.3125 -4.875 57.3125 C-4.215 57.3125 -3.555 57.3125 -2.875 57.3125 C-2.875 57.9725 -2.875 58.6325 -2.875 59.3125 C-2.215 59.3125 -1.555 59.3125 -0.875 59.3125 C-0.5346875 60.17875 -0.5346875 60.17875 -0.1875 61.0625 C1.47261639 63.90841381 3.51687957 65.31091921 6.125 67.3125 C9.43198968 70.43576803 12.42891007 73.78154913 15.4375 77.1875 C18.17713789 80.25716027 20.91288027 83.1040644 24.0625 85.75 C28.35568335 89.36486038 32.01145947 93.47041391 35.73046875 97.6640625 C38.95676845 101.23246576 42.26131333 104.58316459 45.9375 107.6875 C48.125 110.3125 48.125 110.3125 48.62770081 113.56289673 C47.94872756 118.62730138 45.86956544 120.50165189 42.26928711 123.93115234 C41.64654907 124.55169998 41.02381104 125.17224762 40.38220215 125.81159973 C38.32143051 127.85731273 36.23721095 129.87731189 34.15234375 131.8984375 C32.71012869 133.32250055 31.26960568 134.74827908 29.83070374 136.1756897 C26.03583806 139.93249897 22.22134967 143.66871332 18.40148926 147.40008545 C12.30784769 153.35936224 6.24487647 159.34984066 0.18097115 165.33934402 C-1.93073666 167.41964144 -4.05041243 169.49152537 -6.17164612 171.56210327 C-19.38214873 183.18376223 -19.38214873 183.18376223 -25.14453125 198.88671875 C-24.54735156 204.261336 -22.25842439 207.96454803 -18.4375 211.6875 C-12.49580398 215.45540479 -7.45118522 215.67788565 -0.5625 215.6875 C0.34951172 215.71199219 1.26152344 215.73648438 2.20117188 215.76171875 C3.10029297 215.76558594 3.99941406 215.76945313 4.92578125 215.7734375 C6.13488159 215.78576416 6.13488159 215.78576416 7.3684082 215.79833984 C15.60401733 214.346842 20.93331181 209.08355929 26.58886719 203.36621094 C27.39315659 202.56893082 28.19744598 201.7716507 29.02610779 200.95021057 C31.66814605 198.32570214 34.2953701 195.68692176 36.921875 193.046875 C38.76115499 191.21029132 40.60102827 189.37430162 42.44146729 187.53887939 C46.2909257 183.69530932 50.13326373 179.84482068 53.97021484 175.98876953 C58.39349952 171.54371969 62.83100913 167.11326277 67.27618098 162.69010901 C71.56856734 158.41812735 75.84954052 154.13491116 80.12589264 149.84687042 C81.9393912 148.03070944 83.75584956 146.21749882 85.57534027 144.407341 C88.11961964 141.87325492 90.65066681 139.32663658 93.17871094 136.77636719 C93.92787277 136.03530228 94.67703461 135.29423737 95.44889832 134.53071594 C100.56699766 129.32923143 104.47817189 124.38371222 105.65625 116.96875 C105.64078125 115.40640625 105.64078125 115.40640625 105.625 113.8125 C105.6353125 112.7709375 105.645625 111.729375 105.65625 110.65625 C104.10532894 100.89457038 97.66017809 95.38212372 90.8125 88.8125 C88.95989525 87.01282681 87.10959107 85.21078203 85.26171875 83.40625 C84.37935547 82.54467285 83.49699219 81.6830957 82.58789062 80.79541016 C79.78722031 77.97197468 77.19252477 75.01982812 74.61157227 71.99707031 C72.65153077 69.77596894 70.50313813 67.85683989 68.25 65.9375 C63.89077779 62.10666836 60.08510478 57.99391086 56.26171875 53.63671875 C54.36818955 51.57702977 52.4561204 49.79003353 50.3125 48 C46.73426845 44.98042515 43.58195284 41.64675355 40.4375 38.1875 C26.67658529 21.18433296 26.67658529 21.18433296 7.98364258 12.13549805 C5.30148444 12.0687962 2.62035121 12.02758243 -0.0625 12 C-0.98353516 11.97099609 -1.90457031 11.94199219 -2.85351562 11.91210938 C-10.61395385 11.84050845 -16.68379312 13.40107405 -21.8125 19.5 Z " fill="#000000" transform="translate(598.875,523.6875)"/>
</svg>
